#Comment line ignore any data following # character 
#Hierarchical Translation and Rotation (.htr) file 
[Header]	
#Header keywords are followed by a single value 
FileType HTR		#Single word string
DataType HTRS		#Translation followed by rotation and scale data
FileVersion 1		#integer
NumSegments 64		#integer
NumFrames 3		#integer
DataFrameRate 30		#integer, data frame rate in this file
EulerRotationOrder ZYX
CalibrationUnits mm
RotationUnits Degrees
GlobalAxisofGravity Y
BoneLengthAxis Y
ScaleFactor 1.00
[SegmentNames&Hierarchy]
#CHILD	PARENT
Pinger_Root GLOBAL
Pelvis Pinger_Root
L_Hip Pelvis
R_Hip Pelvis
Rear_Leg01 Pelvis
Spine1 Pelvis
L_Leg01 L_Hip
L_Leg02 L_Leg01
L_Leg03 L_Leg02
L_Foot L_Leg03
L_Toe1_01 L_Foot
L_Toe2_01 L_Foot
L_Toe3_01 L_Foot
planeAlignerLeft L_Foot
L_Toe1_02 L_Toe1_01
L_Toe1_03 L_Toe1_02
L_Toe2_02 L_Toe2_01
L_Toe2_03 L_Toe2_02
L_Toe3_02 L_Toe3_01
L_Toe3_03 L_Toe3_02
planeLockWeightLeft planeAlignerLeft
R_Leg01 R_Hip
R_Leg02 R_Leg01
R_Leg03 R_Leg02
R_Foot R_Leg03
planeAlignerRight R_Foot
R_Toe1_01 R_Foot
R_Toe2_01 R_Foot
R_Toe3_01 R_Foot
planeLockWeightRight planeAlignerRight
R_Toe1_02 R_Toe1_01
R_Toe1_03 R_Toe1_02
R_Toe2_02 R_Toe2_01
R_Toe2_03 R_Toe2_02
R_Toe3_02 R_Toe3_01
R_Toe3_03 R_Toe3_02
Rear_Leg02 Rear_Leg01
Rear_Leg03 Rear_Leg02
Rear_Leg04 Rear_Leg03
Rear_Foot Rear_Leg04
planeAlignerCenter Rear_Foot
Rear_Toe1_01 Rear_Foot
Rear_Toe2_01 Rear_Foot
Rear_Toe3_01 Rear_Foot
planeLockWeightCenter planeAlignerCenter
Rear_Toe1_02 Rear_Toe1_01
Rear_Toe1_03 Rear_Toe1_02
Rear_Toe2_02 Rear_Toe2_01
Rear_Toe2_03 Rear_Toe2_02
Rear_Toe3_02 Rear_Toe3_01
Rear_Toe3_03 Rear_Toe3_02
Back_Bone Spine1
Head Spine1
Motor_Bone Back_Bone
Ping_Mechanism Back_Bone
BN_LookIK Head
bottomMouth Head
L_Mouth01 Head
L_mouthFront Head
mouthGun Head
R_Mouth01 Head
R_mouthFront Head
TopMouth Head
weapon_bone Head
[BasePosition]
#SegmentName Tx, Ty, Tz, Rx, Ry, Rz, BoneLength
Pinger_Root 0.000000 0.000000 0.000000 -90.000000 0.000000 0.000000 10.000000 
Pelvis 0.000000 0.000000 0.000000 0.000000 0.000000 0.000000 10.000000 
L_Hip 0.000000 0.000000 0.000000 0.000000 0.000000 0.000000 10.000000 
R_Hip 0.000000 0.000000 0.000000 0.000000 0.000000 0.000000 10.000000 
Rear_Leg01 0.000000 0.000000 0.000000 0.000000 0.000000 0.000000 10.000000 
Spine1 0.000000 0.000000 0.000000 0.000000 0.000000 0.000000 10.000000 
L_Leg01 0.000000 0.000000 0.000000 0.000000 0.000000 0.000000 10.000000 
L_Leg02 0.000000 0.000000 0.000000 0.000000 0.000000 0.000000 10.000000 
L_Leg03 0.000000 0.000000 0.000000 0.000000 0.000000 0.000000 10.000000 
L_Foot 0.000000 0.000000 0.000000 0.000000 0.000000 0.000000 10.000000 
L_Toe1_01 0.000000 0.000000 0.000000 0.000000 0.000000 0.000000 10.000000 
L_Toe2_01 0.000000 0.000000 0.000000 0.000000 0.000000 0.000000 10.000000 
L_Toe3_01 0.000000 0.000000 0.000000 0.000000 0.000000 0.000000 10.000000 
planeAlignerLeft 0.000000 0.000000 0.000000 0.000000 0.000000 0.000000 10.000000 
L_Toe1_02 0.000000 0.000000 0.000000 0.000000 0.000000 0.000000 10.000000 
L_Toe1_03 0.000000 0.000000 0.000000 0.000000 0.000000 0.000000 10.000000 
L_Toe2_02 0.000000 0.000000 0.000000 0.000000 0.000000 0.000000 10.000000 
L_Toe2_03 0.000000 0.000000 0.000000 0.000000 0.000000 0.000000 10.000000 
L_Toe3_02 0.000000 0.000000 0.000000 0.000000 0.000000 0.000000 10.000000 
L_Toe3_03 0.000000 0.000000 0.000000 0.000000 0.000000 0.000000 10.000000 
planeLockWeightLeft 0.000000 0.000000 0.000000 0.000000 0.000000 0.000000 10.000000 
R_Leg01 0.000000 0.000000 0.000000 0.000000 0.000000 0.000000 10.000000 
R_Leg02 0.000000 0.000000 0.000000 0.000000 0.000000 0.000000 10.000000 
R_Leg03 0.000000 0.000000 0.000000 0.000000 0.000000 0.000000 10.000000 
R_Foot 0.000000 0.000000 0.000000 0.000000 0.000000 0.000000 10.000000 
planeAlignerRight 0.000000 0.000000 0.000000 0.000000 0.000000 0.000000 10.000000 
R_Toe1_01 0.000000 0.000000 0.000000 0.000000 0.000000 0.000000 10.000000 
R_Toe2_01 0.000000 0.000000 0.000000 0.000000 0.000000 0.000000 10.000000 
R_Toe3_01 0.000000 0.000000 0.000000 0.000000 0.000000 0.000000 10.000000 
planeLockWeightRight 0.000000 0.000000 0.000000 0.000000 0.000000 0.000000 10.000000 
R_Toe1_02 0.000000 0.000000 0.000000 0.000000 0.000000 0.000000 10.000000 
R_Toe1_03 0.000000 0.000000 0.000000 0.000000 0.000000 0.000000 10.000000 
R_Toe2_02 0.000000 0.000000 0.000000 0.000000 0.000000 0.000000 10.000000 
R_Toe2_03 0.000000 0.000000 0.000000 0.000000 0.000000 0.000000 10.000000 
R_Toe3_02 0.000000 0.000000 0.000000 0.000000 0.000000 0.000000 10.000000 
R_Toe3_03 0.000000 0.000000 0.000000 0.000000 0.000000 0.000000 10.000000 
Rear_Leg02 0.000000 0.000000 0.000000 0.000000 0.000000 0.000000 10.000000 
Rear_Leg03 0.000000 0.000000 0.000000 0.000000 0.000000 0.000000 10.000000 
Rear_Leg04 0.000000 0.000000 0.000000 0.000000 0.000000 0.000000 10.000000 
Rear_Foot 0.000000 0.000000 0.000000 0.000000 0.000000 0.000000 10.000000 
planeAlignerCenter 0.000000 0.000000 0.000000 0.000000 0.000000 0.000000 10.000000 
Rear_Toe1_01 0.000000 0.000000 0.000000 0.000000 0.000000 0.000000 10.000000 
Rear_Toe2_01 0.000000 0.000000 0.000000 0.000000 0.000000 0.000000 10.000000 
Rear_Toe3_01 0.000000 0.000000 0.000000 0.000000 0.000000 0.000000 10.000000 
planeLockWeightCenter 0.000000 0.000000 0.000000 0.000000 0.000000 0.000000 10.000000 
Rear_Toe1_02 0.000000 0.000000 0.000000 0.000000 0.000000 0.000000 10.000000 
Rear_Toe1_03 0.000000 0.000000 0.000000 0.000000 0.000000 0.000000 10.000000 
Rear_Toe2_02 0.000000 0.000000 0.000000 0.000000 0.000000 0.000000 10.000000 
Rear_Toe2_03 0.000000 0.000000 0.000000 0.000000 0.000000 0.000000 10.000000 
Rear_Toe3_02 0.000000 0.000000 0.000000 0.000000 0.000000 0.000000 10.000000 
Rear_Toe3_03 0.000000 0.000000 0.000000 0.000000 0.000000 0.000000 10.000000 
Back_Bone 0.000000 0.000000 0.000000 0.000000 0.000000 0.000000 10.000000 
Head 0.000000 0.000000 0.000000 0.000000 0.000000 0.000000 10.000000 
Motor_Bone 0.000000 0.000000 0.000000 0.000000 0.000000 0.000000 10.000000 
Ping_Mechanism 0.000000 0.000000 0.000000 0.000000 0.000000 0.000000 10.000000 
BN_LookIK 0.000000 0.000000 0.000000 0.000000 0.000000 0.000000 10.000000 
bottomMouth 0.000000 0.000000 0.000000 0.000000 0.000000 0.000000 10.000000 
L_Mouth01 0.000000 0.000000 0.000000 0.000000 0.000000 0.000000 10.000000 
L_mouthFront 0.000000 0.000000 0.000000 0.000000 0.000000 0.000000 10.000000 
mouthGun 0.000000 0.000000 0.000000 0.000000 0.000000 0.000000 10.000000 
R_Mouth01 0.000000 0.000000 0.000000 0.000000 0.000000 0.000000 10.000000 
R_mouthFront 0.000000 0.000000 0.000000 0.000000 0.000000 0.000000 10.000000 
TopMouth 0.000000 0.000000 0.000000 0.000000 0.000000 0.000000 10.000000 
weapon_bone 0.000000 0.000000 0.000000 0.000000 0.000000 0.000000 10.000000 
#Beginning of Data. Separated by tabs
#Fr	Tx	Ty	Tz	Rx	Ry	Rz	SF
[Pinger_Root]
1 0.000000 0.000000 0.000000 -0.000075 -0.000000 -0.000020 0.000000
2 129.629623 0.000000 0.000000 -0.000075 -0.000000 -0.000020 129.629623
3 259.259247 0.000000 0.000000 -0.000075 -0.000000 -0.000020 259.259247
[Pelvis]
1 646.244080 -186.352005 5059.363770 -102.029648 -77.099983 47.786884 5103.873047
2 649.108887 -115.610229 5090.875977 -103.284492 -78.590401 49.095299 5133.393066
3 656.475220 -44.241764 5122.273438 -108.427353 -82.315735 54.389164 5164.358887
[L_Hip]
1 5.766392 125.831482 872.656799 -178.250168 -81.786369 87.376007 881.701050
2 5.766392 125.831482 872.656799 -178.250168 -81.786369 87.376007 881.701050
3 5.766392 125.831482 872.656799 -178.250168 -81.786369 87.376007 881.701050
[R_Hip]
1 5.765438 125.836372 -872.654907 -1.748770 81.786041 87.376961 881.699829
2 5.765438 125.836372 -872.654907 -1.748770 81.786041 87.376961 881.699829
3 5.765438 125.836372 -872.654907 -1.748770 81.786041 87.376961 881.699829
[Rear_Leg01]
1 -192.298416 -925.602966 -0.001907 165.767944 -21.083143 -155.165070 945.367432
2 -192.298416 -925.602966 -0.001907 166.363846 -15.823070 -158.478165 945.367432
3 -192.298416 -925.602966 -0.001907 165.337936 -8.714903 -158.437439 945.367432
[Spine1]
1 290.604584 5.007505 0.000477 42.188213 -17.627220 9.321889 290.647736
2 290.604584 5.007505 0.000477 42.224144 -17.717640 10.870125 290.647736
3 290.604584 5.007505 0.000477 42.300964 -17.974117 14.790504 290.647736
[L_Leg01]
1 761.932007 -0.002384 -0.069261 53.289398 -39.355782 -62.337723 761.932068
2 761.932007 -0.002384 -0.069261 54.804432 -36.959358 -63.130074 761.932068
3 761.932007 -0.002384 -0.069261 57.101013 -33.519352 -64.268204 761.932068
[L_Leg02]
1 1441.140503 -0.000954 -0.000715 -1.484848 0.460806 -95.323013 1441.140503
2 1441.140503 -0.000954 -0.000715 -1.480398 0.470623 -96.495445 1441.140503
3 1441.140503 -0.000954 -0.000715 -1.468267 0.523526 -98.207245 1441.140503
[L_Leg03]
1 1686.963989 -0.000715 -0.000954 0.026242 -0.006568 103.248306 1686.963989
2 1686.963989 -0.000715 -0.000954 0.026264 -0.006479 102.862968 1686.963989
3 1686.963989 -0.000715 -0.000954 0.033311 -0.006799 101.266357 1686.963989
[L_Foot]
1 3041.570068 -30.715107 11.297464 -5.342190 15.125804 45.813915 3041.746094
2 3041.570068 -30.715107 11.297464 -6.300387 15.323730 47.963848 3041.746094
3 3041.570068 -30.715107 11.297464 -7.187178 15.541623 50.865082 3041.746094
[L_Toe1_01]
1 -188.216690 -224.732346 -21.137953 89.699348 -3.374833 -165.449051 293.899567
2 -188.216690 -224.732346 -21.137953 89.712082 -3.434679 -165.433182 293.899567
3 -188.216690 -224.732346 -21.137953 89.724831 -3.494528 -165.417328 293.899567
[L_Toe2_01]
1 200.746536 -219.926590 148.838394 -77.584976 -14.474025 -44.187046 332.896027
2 200.746536 -219.926590 148.838394 -77.565712 -14.420163 -44.299782 332.896027
3 200.746536 -219.926590 148.838394 -77.546547 -14.366260 -44.412472 332.896027
[L_Toe3_01]
1 188.832520 -219.859131 -191.078659 -105.094337 14.710049 -44.951870 347.140900
2 188.832520 -219.859131 -191.078659 -105.055313 14.347095 -45.080677 347.140900
3 188.832520 -219.859131 -191.078659 -105.134552 14.542623 -45.196140 347.140900
[planeAlignerLeft]
1 -11.900024 -606.275146 27.253952 0.000000 -90.000000 -90.001900 607.004028
2 -5.176392 -607.897339 30.325544 0.000000 -90.000000 -90.001900 608.675293
3 -7.425232 -609.160889 28.414343 0.000000 -90.000000 -90.001900 609.868408
[L_Toe1_02]
1 413.761139 0.000477 0.000000 0.001412 -22.421448 0.001412 413.761139
2 413.761139 0.000477 0.000000 0.001412 -22.418085 0.001412 413.761139
3 413.761139 0.000477 0.000000 0.001412 -22.414724 0.001412 413.761139
[L_Toe1_03]
1 464.317322 0.000358 -0.000089 0.015052 81.056046 0.015052 464.317322
2 464.317322 0.000358 -0.000089 0.016627 81.904610 0.016627 464.317322
3 464.317322 0.000358 -0.000089 0.015842 81.503143 0.015842 464.317322
[L_Toe2_02]
1 342.235809 -0.000477 0.000238 0.001180 -77.741257 0.001180 342.235809
2 342.235809 -0.000477 0.000238 0.001181 -77.601677 0.001181 342.235809
3 342.235809 -0.000477 0.000238 0.001181 -77.462029 0.001181 342.235809
[L_Toe2_03]
1 420.210846 -0.000715 0.000000 -179.996613 77.155922 -179.993103 420.210846
2 420.210846 -0.000715 0.000000 -179.996063 78.414101 -179.992554 420.210846
3 420.210846 -0.000715 0.000000 -179.996109 78.324768 -179.992584 420.210846
[L_Toe3_02]
1 329.270111 0.000954 0.000000 0.001177 -81.880569 0.001177 329.270111
2 329.270111 0.000954 0.000000 0.001177 -81.865852 0.001177 329.270111
3 329.270111 0.000954 0.000000 0.001177 -81.851097 0.001177 329.270111
[L_Toe3_03]
1 439.137451 -0.001907 0.000954 -179.997986 72.516495 -179.994446 439.137451
2 439.137451 -0.001907 0.000954 -179.997787 73.371346 -179.994263 439.137451
3 439.137451 -0.001907 0.000954 -179.997818 73.278946 -179.994278 439.137451
[planeLockWeightLeft]
1 999.999329 0.097961 0.076275 -0.011826 -0.004376 0.005620 999.999329
2 999.999329 0.097973 0.076272 -0.011826 -0.004376 0.005620 999.999329
3 999.999268 0.097985 0.076268 -0.011826 -0.004376 0.005620 999.999268
[R_Leg01]
1 761.455627 -0.001907 -0.000358 92.660767 -11.174006 95.294151 761.455688
2 761.455627 -0.001907 -0.000358 92.960976 -7.688769 95.821480 761.455688
3 761.455627 -0.001907 -0.000358 93.529091 -0.905567 96.685143 761.455688
[R_Leg02]
1 1441.140625 0.000000 -0.000238 0.179191 -0.029073 -93.044296 1441.140625
2 1441.140625 0.000000 -0.000238 0.181755 -0.019556 -89.421097 1441.140625
3 1441.140625 0.000000 -0.000238 0.188438 -0.013234 -84.787285 1441.140625
[R_Leg03]
1 1686.963989 0.000954 0.001431 -0.085529 0.015134 86.844391 1686.963989
2 1686.963989 0.000954 0.001431 -0.098279 0.013794 83.619232 1686.963989
3 1686.963989 0.000954 0.001431 -0.110933 0.011738 80.394073 1686.963989
[R_Foot]
1 3041.560059 -30.531288 -11.204481 -4.034905 -20.427847 98.665222 3041.734131
2 3041.560059 -30.531288 -11.204481 -4.365011 -20.238623 100.391968 3041.734131
3 3041.560059 -30.531288 -11.204481 -4.688488 -20.040161 102.115364 3041.734131
[planeAlignerRight]
1 -0.897903 -688.308228 0.704498 0.000000 -89.960434 -90.005180 688.309204
2 -1.451797 -694.894348 1.510468 0.000000 -89.960434 -90.005180 694.897522
3 -3.163910 -712.252625 3.637848 0.000000 -89.960434 -90.005180 712.268921
[R_Toe1_01]
1 -188.383347 -224.864899 21.052242 90.727684 1.944208 -159.560333 294.101532
2 -188.383347 -224.864899 21.052242 90.763878 1.896585 -159.009033 294.101532
3 -188.383347 -224.864899 21.052242 90.802002 1.762594 -157.528122 294.101532
[R_Toe2_01]
1 200.637817 -220.002121 -148.787384 -103.219139 11.336223 -50.088669 332.857574
2 200.637817 -220.002121 -148.787384 -103.301323 11.190304 -50.563560 332.857574
3 200.637817 -220.002121 -148.787384 -103.509308 10.817678 -51.810181 332.857574
[R_Toe3_01]
1 188.606735 -220.092957 191.126343 -72.765289 -14.070400 -51.993347 347.192566
2 188.606735 -220.092957 191.126343 -72.613838 -13.971905 -52.493927 347.192566
3 188.606735 -220.092957 191.126343 -72.259506 -13.722331 -53.821472 347.192566
[planeLockWeightRight]
1 999.999207 -0.000458 0.076332 -0.011823 -0.004379 -0.000027 999.999207
2 999.999207 -0.000458 0.076346 -0.011823 -0.004379 -0.000027 999.999207
3 999.999146 -0.000458 0.076361 -0.011823 -0.004379 -0.000027 999.999146
[R_Toe1_02]
1 413.762085 0.000477 -0.000119 0.001404 -23.390312 0.001404 413.762085
2 413.762085 0.000477 -0.000119 0.001402 -23.717209 0.001402 413.762085
3 413.762085 0.000477 -0.000119 0.001399 -24.044107 0.001399 413.762085
[R_Toe1_03]
1 464.317810 0.000000 0.001088 0.010092 76.644417 0.010092 464.317810
2 464.317810 0.000000 0.001088 0.009619 75.984047 0.009619 464.317810
3 464.317810 0.000000 0.001088 0.008519 74.162827 0.008519 464.317810
[R_Toe2_02]
1 342.234741 -0.000954 0.000238 -0.002342 -75.472374 -0.002342 342.234741
2 342.234741 -0.000954 0.000238 -0.002343 -75.138565 -0.002343 342.234741
3 342.234741 -0.000954 0.000238 -0.002344 -74.804726 -0.002344 342.234741
[R_Toe2_03]
1 420.210846 0.000715 -0.000268 -179.984009 85.375511 -179.987503 420.210846
2 420.210846 0.000715 -0.000268 -179.981964 85.955475 -179.985458 420.210846
3 420.210846 0.000715 -0.000268 -179.972061 87.485962 -179.975555 420.210846
[R_Toe3_02]
1 329.270355 -0.000477 -0.000954 0.001179 -79.338387 0.001179 329.270355
2 329.270355 -0.000477 -0.000954 0.001179 -79.005096 0.001179 329.270355
3 329.270355 -0.000477 -0.000954 0.001179 -78.671745 0.001179 329.270355
[R_Toe3_03]
1 439.137939 0.000238 0.001431 -179.992615 82.785011 -179.989120 439.137939
2 439.137939 0.000238 0.001431 -179.991776 83.399574 -179.988266 439.137939
3 439.137939 0.000238 0.001431 -179.988495 85.032837 -179.985001 439.137939
[Rear_Leg02]
1 1162.777710 -0.029802 0.005960 26.672678 -17.087589 -103.887146 1162.777710
2 1162.777710 -0.029802 0.005960 28.266096 -13.577288 -109.044678 1162.777710
3 1162.777710 -0.029802 0.005960 29.500746 -8.090237 -116.673157 1162.777710
[Rear_Leg03]
1 607.192505 -0.013351 -0.073195 0.010037 -0.005951 77.688393 607.192505
2 607.192505 -0.013351 -0.073195 0.009964 -0.006074 79.093040 607.192505
3 607.192505 -0.013351 -0.073195 0.009888 -0.006196 80.497681 607.192505
[Rear_Leg04]
1 995.874512 -0.020504 -0.011921 -0.043436 -0.016674 92.157310 995.874573
2 995.874512 -0.020504 -0.011921 -0.044172 -0.014614 97.544098 995.874573
3 995.874512 -0.020504 -0.011921 -0.042081 -0.015464 105.464729 995.874573
[Rear_Foot]
1 3096.176270 -0.067472 -0.041425 -102.527328 64.263504 12.146406 3096.176270
2 3096.176270 -0.067472 -0.041425 -88.352470 65.514420 27.190395 3096.176270
3 3096.176270 -0.067472 -0.041425 -77.082703 63.706711 46.623505 3096.176270
[planeAlignerCenter]
1 -0.642090 245.739746 -761.676758 0.000009 0.000003 -179.999985 800.337402
2 0.293655 248.678726 -759.750244 0.000009 0.000003 -179.999985 799.413330
3 2.487812 256.156311 -756.706665 0.000009 0.000003 -179.999985 798.891235
[Rear_Toe1_01]
1 0.653352 83.966492 -371.173737 0.101680 39.623997 90.048317 380.553192
2 0.653352 83.966492 -371.173737 0.099085 39.657467 90.047234 380.553192
3 0.653352 83.966492 -371.173737 0.096486 39.690933 90.046165 380.553192
[Rear_Toe2_01]
1 178.200760 -294.826019 -362.060547 62.022511 84.596268 -8.651174 499.765686
2 178.200760 -294.826019 -362.060547 67.679176 84.608643 -2.972613 499.765686
3 178.200760 -294.826019 -362.060547 81.900444 84.424728 11.281015 499.765686
[Rear_Toe3_01]
1 -153.359680 -308.780914 -362.060852 -63.780083 83.939514 -175.299225 499.952881
2 -153.359680 -308.780914 -362.060852 -68.856483 83.916687 179.599747 499.952881
3 -153.359680 -308.780914 -362.060852 -81.392471 83.670143 167.026138 499.952881
[planeLockWeightCenter]
1 0.000305 0.000000 0.076370 -0.011814 -0.004373 -0.000015 0.076371
2 0.000273 0.000019 0.076396 -0.011814 -0.004373 -0.000015 0.076396
3 0.000242 0.000038 0.076421 -0.011814 -0.004373 -0.000015 0.076421
[Rear_Toe1_02]
1 379.707825 0.194073 0.000477 -0.000767 -33.624729 0.000838 379.707855
2 379.707825 0.194073 0.000477 -0.000767 -33.624729 0.000838 379.707855
3 379.707825 0.194073 0.000477 -0.000767 -33.624729 0.000838 379.707855
[Rear_Toe1_03]
1 500.129700 0.165701 0.000119 -179.984314 85.274612 -179.987808 500.129761
2 500.129700 0.165701 0.000119 -179.980896 86.205841 -179.984390 500.129761
3 500.129700 0.165701 0.000119 -179.951202 88.600029 -179.954697 500.129761
[Rear_Toe2_02]
1 340.494507 0.000238 -0.000954 179.998825 -87.330826 179.998825 340.494507
2 340.494507 0.000238 -0.000954 179.998825 -87.269562 179.998825 340.494507
3 340.494507 0.000238 -0.000954 179.998825 -87.208168 179.998825 340.494507
[Rear_Toe2_03]
1 433.103577 0.000000 0.000238 -179.996231 55.338249 -179.999893 433.103546
2 433.103577 0.000000 0.000238 -179.996262 54.945263 -179.999924 433.103546
3 433.103577 0.000000 0.000238 -179.996277 54.552273 -179.999954 433.103546
[Rear_Toe3_02]
1 340.494141 -0.000358 -0.000477 -179.994171 -87.378708 -179.994171 340.494171
2 340.494141 -0.000358 -0.000477 -179.994171 -87.318611 -179.994171 340.494171
3 340.494141 -0.000358 -0.000477 -179.994171 -87.258118 -179.994171 340.494171
[Rear_Toe3_03]
1 433.103577 0.001431 -0.000238 179.992371 55.589695 179.999695 433.103546
2 433.103577 0.001431 -0.000238 179.992416 55.212967 179.999741 433.103546
3 433.103577 0.001431 -0.000238 179.992447 54.836258 179.999786 433.103546
[Back_Bone]
1 1312.175781 -701.934692 0.000954 -2.876992 1.429053 -84.242424 1488.125488
2 1312.175781 -701.934692 0.000954 -3.016175 1.111372 -84.530403 1488.125488
3 1312.175781 -701.934692 0.000954 -3.153744 0.792996 -84.817581 1488.125488
[Head]
1 1406.159424 809.709290 0.001431 6.739795 -3.159832 2.933345 1622.625488
2 1406.159424 809.709290 0.001431 6.545570 -3.169846 2.769305 1622.625488
3 1406.159424 809.709290 0.001431 6.351372 -3.180414 2.605299 1622.625488
[Motor_Bone]
1 1158.364380 -417.834747 0.000477 -2.687934 0.131929 -105.851517 1231.419434
2 1158.364380 -417.834747 0.000477 -5.513655 1.191246 -104.796577 1231.419434
3 1158.364380 -417.834747 0.000477 -3.495545 0.584006 -105.401466 1231.419434
[Ping_Mechanism]
1 1262.705322 -459.653900 36.123466 0.000103 -0.000053 82.120995 1344.251221
2 1257.564697 -457.435272 30.856741 0.000103 -0.000053 82.120995 1338.531982
3 1244.639893 -451.359253 17.664528 0.000103 -0.000053 82.120995 1324.071655
[BN_LookIK]
1 193.241119 1380.371704 -0.002861 0.000000 89.965736 -31.038179 1393.832153
2 193.241119 1380.371704 -0.002861 0.000000 89.965736 -31.038179 1393.832153
3 193.241119 1380.371704 -0.002861 0.000000 89.965736 -31.038179 1393.832153
[bottomMouth]
1 -435.092926 615.759399 -0.000954 -0.000022 0.000016 73.527184 753.966492
2 -435.092926 615.759399 -0.000954 -0.000022 0.000016 73.527184 753.966492
3 -435.092926 615.759399 -0.000954 -0.000022 0.000016 73.527184 753.966492
[L_Mouth01]
1 554.440979 7.658243 838.222046 150.204178 23.759130 109.605339 1005.027161
2 554.440979 7.658243 838.222046 150.204178 23.759130 109.605339 1005.027161
3 554.440979 7.658243 838.222046 150.204178 23.759130 109.605339 1005.027161
[L_mouthFront]
1 551.629089 934.514771 339.150421 0.000081 2.804060 79.119301 1136.941284
2 551.629089 934.514771 339.150421 0.000081 2.804060 79.119301 1136.941284
3 551.629089 934.514771 339.150421 0.000081 2.804060 79.119301 1136.941284
[mouthGun]
1 55.332661 1627.420898 0.000000 0.000023 0.000009 -11.038128 1628.361328
2 55.332661 1627.420898 0.000000 0.000023 0.000009 -11.038128 1628.361328
3 55.332661 1627.420898 0.000000 0.000023 0.000009 -11.038128 1628.361328
[R_Mouth01]
1 554.442383 7.659197 -838.223938 29.795891 -23.759109 109.605331 1005.029541
2 554.442383 7.659197 -838.223938 29.795891 -23.759109 109.605331 1005.029541
3 554.442383 7.659197 -838.223938 29.795891 -23.759109 109.605331 1005.029541
[R_mouthFront]
1 551.629089 934.514282 -339.151367 0.000029 -2.803930 79.119133 1136.941162
2 551.629089 934.514282 -339.151367 0.000029 -2.803930 79.119133 1136.941162
3 551.629089 934.514282 -339.151367 0.000029 -2.803930 79.119133 1136.941162
[TopMouth]
1 461.269867 -56.106091 -0.008583 -0.000059 -0.000268 92.025169 464.669525
2 461.269867 -56.106091 -0.008583 -0.000059 -0.000268 92.025169 464.669525
3 461.269867 -56.106091 -0.008583 -0.000059 -0.000268 92.025169 464.669525
[weapon_bone]
1 -987.239868 1448.372803 0.001431 0.000000 89.965736 -31.038221 1752.833740
2 -987.239868 1448.372803 0.001431 0.000000 89.965736 -31.038221 1752.833740
3 -987.239868 1448.372803 0.001431 0.000000 89.965736 -31.038221 1752.833740
